<svg width="33" height="33" viewBox="0 0 33 33" fill="none" xmlns="http://www.w3.org/2000/svg">
<g id="&#240;&#159;&#166;&#134; icon &#34;filter&#34;">
<path id="Vector" d="M2.72219 1H30.2775C31.2286 1 31.9997 1.77092 31.9997 2.72197L32 5.45306C32.0002 5.90992 31.8186 6.34807 31.4956 6.6711L20.4486 17.7175C20.1256 18.0404 19.9441 18.4786 19.9441 18.9353V29.7937C19.9441 30.9142 18.8912 31.7363 17.8043 31.4646L14.3599 30.6035C13.5932 30.4118 13.0554 29.7229 13.0554 28.9326V18.9353C13.0554 18.4786 12.8739 18.0404 12.5509 17.7175L1.50441 6.671C1.18143 6.34803 1 5.90998 1 5.45323V2.72219C1 1.77106 1.77104 1 2.72219 1Z" stroke="black" stroke-width="2" stroke-linecap="round" stroke-linejoin="round"/>
</g>
</svg>
