<svg width="28" height="28" viewBox="0 0 28 28" fill="none" xmlns="http://www.w3.org/2000/svg">
<g id="&#240;&#159;&#166;&#134; icon &#34;thumbs up&#34;">
<path id="Vector" d="M1.77327 12.9898V25.1137C1.77327 25.592 2.17023 25.9797 2.65991 25.9797H6.20645C6.69613 25.9797 7.09309 25.592 7.09309 25.1137V12.9898C7.09309 12.5116 6.69613 12.1239 6.20645 12.1239H2.65991C2.17023 12.1239 1.77327 12.5116 1.77327 12.9898ZM7.97973 11.0534L9.54368 7.99834C10.2644 6.59046 10.6396 5.03802 10.6396 3.46396V3.03096C10.6396 1.35701 12.029 0 13.7429 0C15.4567 0 16.8917 1.26842 17.0622 2.93405L17.6485 8.6599H23.5668C26.0152 8.6599 28 10.5985 28 12.9898C28 13.1337 27.9927 13.2775 27.978 13.4207L26.914 23.8126C26.6874 26.0261 24.7804 27.7117 22.5029 27.7117H11.5263C10.3336 27.7117 9.251 27.2517 8.45418 26.5035C7.98253 27.2297 7.15212 27.7117 6.20645 27.7117H2.65991C1.19088 27.7117 0 26.5485 0 25.1137V12.9898C0 11.555 1.19088 10.3919 2.65991 10.3919H6.20645C6.88771 10.3919 7.50914 10.642 7.97973 11.0534ZM8.86636 13.1943V23.3817C8.86636 24.8165 10.0572 25.9797 11.5263 25.9797H22.5029C23.8694 25.9797 25.0136 24.9683 25.1496 23.6402L26.2135 13.2484C26.2223 13.1625 26.2267 13.0762 26.2267 12.9898C26.2267 11.555 25.0358 10.3919 23.5668 10.3919H16.8461C16.3906 10.3919 16.0092 10.0548 15.9638 9.61206L15.2978 3.10639C15.2179 2.32615 14.5457 1.73198 13.7429 1.73198C13.0083 1.73198 12.4129 2.31356 12.4129 3.03096V3.46396C12.4129 5.3069 11.9736 7.12453 11.1297 8.77291L8.86636 13.1943Z" fill="black"/>
</g>
</svg>
