<svg width="28" height="27" viewBox="0 0 28 27" fill="none" xmlns="http://www.w3.org/2000/svg">
<g id="&#240;&#159;&#166;&#134; icon &#34;time&#34;">
<path id="Vector" d="M14 26.3121C10.287 26.3121 6.72601 24.926 4.1005 22.4588C1.475 19.9915 0 16.6453 0 13.1561C0 9.66685 1.475 6.32056 4.1005 3.85332C6.72601 1.38608 10.287 0 14 0C17.713 0 21.274 1.38608 23.8995 3.85332C26.525 6.32056 28 9.66685 28 13.1561C28 16.6453 26.525 19.9915 23.8995 22.4588C21.274 24.926 17.713 26.3121 14 26.3121ZM14 23.6809C16.9704 23.6809 19.8192 22.572 21.9196 20.5982C24.02 18.6244 25.2 15.9474 25.2 13.1561C25.2 10.3647 24.02 7.68766 21.9196 5.71387C19.8192 3.74007 16.9704 2.63121 14 2.63121C11.0296 2.63121 8.18081 3.74007 6.0804 5.71387C3.98 7.68766 2.8 10.3647 2.8 13.1561C2.8 15.9474 3.98 18.6244 6.0804 20.5982C8.18081 22.572 11.0296 23.6809 14 23.6809ZM12.6 13.6954V5.26242H15.4V12.6167L20.93 17.8133L18.956 19.6683L12.6 13.6954Z" fill="black"/>
</g>
</svg>
